#!OML:ASF X:\für Bonn\!DataBase\2005_08_12_Daniel\c3d\Daniel.ASF
:FULLY-SPECIFIED
:DEGREES
112
root -3.18797 10.1427 -2.70126 321.518 -79.9638 -346.576
lowerback 46.4007 -4.04382 -0.228216
upperback 4.51185 -6.57717 -2.71952
thorax -16.7689 -3.14107 0.555744
lowerneck 2.31658 1.49647 -5.10043
upperneck 0.120318 1.86319 1.8604
head -0.420123 0.918155 1.41333
rclavicle 3.92103e-014 -1.15295e-014
rhumerus 70.7523 -14.3648 -133.026
rradius 9.97748
rwrist 105.799
rhand -17.2944 15.9944
rfingers 7.12502
rthumb 8.95128 -13.7957
lclavicle 3.92103e-014 -1.15295e-014
lhumerus 71.5246 3.31556 102.553
lradius 7.99043
lwrist -77.1897
lhand -15.0469 1.07367
lfingers 7.12502
lthumb 11.1195 30.7591
rfemur -27.0704 -52.3875 -38.545
rtibia 126.207
rfoot 6.75932 54.7216
rtoes 6.6946
lfemur -50.4347 28.8924 -0.343215
ltibia 124.297
lfoot -6.48072 -47.0648
ltoes 15.9028
113
root -3.17801 10.3222 -2.69675 321.639 -79.9978 -346.378
lowerback 45.992 -4.01467 -0.286966
upperback 4.40899 -6.54716 -2.70475
thorax -16.7693 -3.11877 0.573424
lowerneck 1.96192 1.47558 -5.11263
upperneck 0.376735 1.85375 1.85307
head -0.280469 0.911714 1.41586
rclavicle 4.53229e-014 -7.15625e-015
rhumerus 70.3864 -14.3039 -132.272
rradius 9.95335
rwrist 105.23
rhand -17.4291 15.845
rfingers 7.12502
rthumb 8.82124 -13.9506
lclavicle 4.53229e-014 -7.15625e-015
lhumerus 71.3273 3.34865 102.641
lradius 7.90307
lwrist -77.1042
lhand -15.2699 1.47706
lfingers 7.12502
lthumb 10.9044 31.1739
rfemur -28.8499 -50.5101 -34.6043
rtibia 124.625
rfoot 5.63357 53.0033
rtoes 6.33144
lfemur -49.7197 27.3691 -1.37573
ltibia 122.657
lfoot -7.04213 -46.2078
ltoes 16.0098
114
root -3.16876 10.5018 -2.69206 321.69 -80.0462 -346.119
lowerback 45.5758 -3.98084 -0.368029
upperback 4.30153 -6.52109 -2.6849
thorax -16.7684 -3.09673 0.609935
lowerneck 1.71892 1.46 -5.11303
upperneck 0.575287 1.84551 1.80635
head -0.177263 0.906096 1.40321
rclavicle 2.18166e-014 -8.34896e-015
rhumerus 69.97 -14.2327 -131.512
rradius 9.97402
rwrist 104.725
rhand -17.521 15.7585
rfingers 7.12502
rthumb 8.73264 -14.0408
lclavicle 2.18166e-014 -8.34896e-015
lhumerus 71.107 3.43643 102.717
lradius 7.8066
lwrist -76.997
lhand -15.468 1.91889
lfingers 7.12502
lthumb 10.7133 31.6257
rfemur -30.2079 -48.6536 -31.1392
rtibia 123.028
rfoot 4.3838 51.3858
rtoes 5.92266
lfemur -48.9415 25.9221 -2.34793
ltibia 121.008
lfoot -7.84733 -45.4021
ltoes 15.9489
115
root -3.15899 10.6799 -2.68727 321.6 -80.0769 -345.721
lowerback 45.1546 -3.93934 -0.477788
upperback 4.20286 -6.50043 -2.66942
thorax -16.751 -3.07628 0.65827
lowerneck 1.47204 1.45172 -5.11997
upperneck 0.785994 1.84735 1.78227
head -0.0705267 0.905203 1.3992
rclavicle 8.25453e-014 1.51076e-014
rhumerus 69.5348 -14.1799 -130.739
rradius 10.0456
rwrist 104.235
rhand -17.5801 15.7123
rfingers 7.12502
rthumb 8.67555 -14.0895
lclavicle 8.25453e-014 1.51076e-014
lhumerus 70.89 3.52769 102.795
lradius 7.72503
lwrist -76.9249
lhand -15.5951 2.37492
lfingers 7.12502
lthumb 10.5907 32.0881
rfemur -31.2125 -46.8499 -28.1276
rtibia 121.416
rfoot 3.202 49.8592
rtoes 5.43969
lfemur -48.1345 24.5207 -3.30384
ltibia 119.337
lfoot -8.58943 -44.5995
ltoes 16.0703
116
root -3.14967 10.8584 -2.68197 321.716 -80.1152 -345.534
lowerback 44.7314 -3.92028 -0.537252
upperback 4.102 -6.48414 -2.66453
thorax -16.7397 -3.06056 0.671412
lowerneck 1.29697 1.44411 -5.07845
upperneck 0.941625 1.84706 1.72924
head 0.00791546 0.903762 1.37698
rclavicle 1.23743e-014 1.51076e-014
rhumerus 68.9959 -14.0221 -129.706
rradius 10.1788
rwrist 103.446
rhand -17.5595 15.649
rfingers 7.12502
rthumb 8.69544 -14.1519
lclavicle 1.23743e-014 1.51076e-014
lhumerus 70.6332 3.61186 102.847
lradius 7.64274
lwrist -76.8223
lhand -15.7636 2.84025
lfingers 7.12502
lthumb 10.4282 32.5616
rfemur -31.9105 -45.1367 -25.4311
rtibia 119.785
rfoot 1.90015 48.3796
rtoes 4.9469
lfemur -47.3302 23.1584 -4.1906
ltibia 117.67
lfoot -9.49396 -43.815
ltoes 15.9498
117
root -3.14195 11.0371 -2.67602 321.608 -80.1474 -345.127
lowerback 44.2909 -3.88154 -0.631489
upperback 4.0093 -6.46007 -2.66037
thorax -16.7075 -3.04067 0.696322
lowerneck 1.18539 1.434 -5.07871
upperneck 1.06384 1.83939 1.71628
head 0.0647514 0.898643 1.37438
rclavicle 3.0265e-014 -2.22639e-014
rhumerus 68.397 -13.7922 -128.397
rradius 10.3189
rwrist 102.367
rhand -17.4897 15.564
rfingers 7.12502
rthumb 8.76283 -14.2341
lclavicle 3.0265e-014 -2.22639e-014
lhumerus 70.3795 3.6951 102.917
lradius 7.57221
lwrist -76.7872
lhand -15.8298 3.26858
lfingers 7.12502
lthumb 10.3643 32.9932
rfemur -32.3547 -43.492 -23.086
rtibia 118.128
rfoot 0.757484 46.9814
rtoes 4.43264
lfemur -46.4572 21.8396 -5.07707
ltibia 115.968
lfoot -10.5013 -43.0271
ltoes 15.8279
118
root -3.13554 11.2179 -2.66936 321.574 -80.197 -344.801
lowerback 43.8534 -3.85485 -0.711812
upperback 3.91947 -6.44288 -2.64989
thorax -16.6709 -3.02474 0.72454
lowerneck 1.10028 1.43031 -5.08078
upperneck 1.16348 1.83889 1.68142
head 0.110126 0.897214 1.36481
rclavicle 5.62064e-014 -1.51076e-014
rhumerus 67.7803 -13.5639 -127.171
rradius 10.4739
rwrist 101.366
rhand -17.4137 15.4952
rfingers 7.12502
rthumb 8.83615 -14.2998
lclavicle 5.62064e-014 -1.51076e-014
lhumerus 70.1009 3.81562 102.978
lradius 7.53336
lwrist -76.7516
lhand -15.8598 3.63414
lfingers 7.12502
lthumb 10.3354 33.3602
rfemur -32.5699 -41.9096 -20.9402
rtibia 116.417
rfoot -0.499306 45.6343
rtoes 3.91404
lfemur -45.5331 20.5617 -5.90812
ltibia 114.239
lfoot -11.6755 -42.24
ltoes 15.5181
119
root -3.12886 11.4022 -2.66251 321.517 -80.2594 -344.446
lowerback 43.4421 -3.82422 -0.782162
upperback 3.81124 -6.41712 -2.64647
thorax -16.665 -3.00438 0.737448
lowerneck 1.03207 1.42579 -5.03791
upperneck 1.26432 1.8369 1.64498
head 0.15349 0.895129 1.34682
rclavicle 5.71506e-014 4.37326e-015
rhumerus 67.1714 -13.3932 -126.053
rradius 10.6187
rwrist 100.386
rhand -17.3201 15.4477
rfingers 7.12502
rthumb 8.92646 -14.3434
lclavicle 5.71506e-014 4.37326e-015
lhumerus 69.741 3.95193 103.022
lradius 7.57209
lwrist -76.7118
lhand -15.8697 3.9225
lfingers 7.12502
lthumb 10.3259 33.649
rfemur -32.6657 -40.3792 -18.9311
rtibia 114.665
rfoot -1.81247 44.2912
rtoes 3.24846
lfemur -44.5666 19.3149 -6.7191
ltibia 112.454
lfoot -12.7993 -41.42
ltoes 15.2292
120
root -3.12235 11.5888 -2.65481 321.338 -80.2953 -343.965
lowerback 43.0148 -3.79617 -0.846678
upperback 3.713 -6.39696 -2.67257
thorax -16.6442 -2.98839 0.716322
lowerneck 0.964454 1.41191 -4.98479
upperneck 1.3681 1.82235 1.64327
head 0.197822 0.886916 1.33822
rclavicle 2.33572e-015 2.78299e-014
rhumerus 66.6572 -13.3241 -125.136
rradius 10.7031
rwrist 99.6321
rhand -17.3324 15.387
rfingers 7.12502
rthumb 8.91464 -14.4047
lclavicle 2.33572e-015 2.78299e-014
lhumerus 69.3819 4.03683 103.056
lradius 7.61614
lwrist -76.7376
lhand -15.7524 4.18691
lfingers 7.12502
lthumb 10.439 33.9077
rfemur -32.5802 -38.9536 -17.1494
rtibia 112.861
rfoot -3.16575 42.9778
rtoes 2.5335
lfemur -43.592 18.0645 -7.57635
ltibia 110.636
lfoot -14.1528 -40.5092
ltoes 14.7405
121
root -3.11518 11.7778 -2.64702 321.221 -80.3471 -343.556
lowerback 42.6129 -3.77203 -0.927455
upperback 3.61313 -6.38497 -2.67231
thorax -16.6264 -2.97418 0.737862
lowerneck 0.860613 1.40705 -4.9861
upperneck 1.48836 1.82105 1.66759
head 0.252144 0.885069 1.34783
rclavicle 3.78685e-014 1.31198e-014
rhumerus 66.237 -13.3368 -124.636
rradius 10.7373
rwrist 99.2633
rhand -17.3621 15.3811
rfingers 7.12502
rthumb 8.88596 -14.4118
lclavicle 3.78685e-014 1.31198e-014
lhumerus 69.0424 4.21547 103.08
lradius 7.66454
lwrist -76.7241
lhand -15.6488 4.45072
lfingers 7.12502
lthumb 10.5389 34.1665
rfemur -32.3836 -37.5847 -15.4745
rtibia 111.011
rfoot -4.44114 41.6733
rtoes 1.83292
lfemur -42.5639 16.8327 -8.39354
ltibia 108.767
lfoot -15.5429 -39.5343
ltoes 14.1361
122
root -3.10817 11.9679 -2.63817 321.07 -80.4013 -343.109
lowerback 42.2211 -3.74634 -0.991761
upperback 3.49804 -6.36446 -2.68105
thorax -16.6315 -2.9564 0.737852
lowerneck 0.808576 1.39222 -4.94454
upperneck 1.59438 1.80408 1.65429
head 0.294639 0.875452 1.33751
rclavicle 4.4329e-014 2.70347e-014
rhumerus 65.8295 -13.3782 -124.053
rradius 10.7162
rwrist 98.8255
rhand -17.3839 15.3448
rfingers 7.12502
rthumb 8.86492 -14.449
lclavicle 4.4329e-014 2.70347e-014
lhumerus 68.6758 4.37282 103.106
lradius 7.7393
lwrist -76.7401
lhand -15.4285 4.59458
lfingers 7.12502
lthumb 10.7514 34.2994
rfemur -32.0747 -36.3117 -13.9472
rtibia 109.119
rfoot -5.87958 40.3979
rtoes 0.983117
lfemur -41.524 15.6382 -9.21402
ltibia 106.855
lfoot -17.0512 -38.4818
ltoes 13.4451
123
root -3.10081 12.1614 -2.62962 320.885 -80.465 -342.626
lowerback 41.8263 -3.71854 -1.05685
upperback 3.38929 -6.34278 -2.69559
thorax -16.6266 -2.93896 0.730821
lowerneck 0.773965 1.38092 -4.88452
upperneck 1.6761 1.79096 1.65186
head 0.326615 0.868243 1.32715
rclavicle 2.05245e-014 1.47101e-014
rhumerus 65.4931 -13.4609 -123.583
rradius 10.6211
rwrist 98.4746
rhand -17.474 15.369
rfingers 7.12502
rthumb 8.77791 -14.4285
lclavicle 2.05245e-014 1.47101e-014
lhumerus 68.3042 4.55658 103.105
lradius 7.84358
lwrist -76.7708
lhand -15.2163 4.69519
lfingers 7.12502
lthumb 10.9561 34.3893
rfemur -31.6792 -35.1081 -12.5204
rtibia 107.173
rfoot -7.33284 39.1301
rtoes 0.23796
lfemur -40.4412 14.4641 -10.0205
ltibia 104.875
lfoot -18.5259 -37.348
ltoes 12.8654
